<?xml version="1.0" standalone="no"?>
<!DOCTYPE svg PUBLIC "-//W3C//DTD SVG 20010904//EN"
 "http://www.w3.org/TR/2001/REC-SVG-20010904/DTD/svg10.dtd">
<svg version="1.0" xmlns="http://www.w3.org/2000/svg"
 width="150.000000pt" height="150.000000pt" viewBox="0 0 150.000000 150.000000"
 preserveAspectRatio="xMidYMid meet">
<metadata>
Created by potrace 1.14, written by Peter Selinger 2001-2017
</metadata>
<g transform="translate(0.000000,150.000000) scale(0.100000,-0.100000)"
fill="#000000" stroke="none">
<path d="M600 1465 c-30 -7 -77 -23 -104 -35 -49 -21 -57 -19 -69 14 -2 5 -22
-5 -45 -21 -23 -17 -62 -36 -87 -42 -51 -13 -54 -21 -24 -62 l21 -30 -35 -42
c-45 -55 -82 -124 -109 -200 -18 -51 -22 -85 -22 -192 0 -117 3 -137 27 -205
31 -85 75 -162 122 -213 36 -39 35 -47 -4 -47 -39 0 -52 -13 -47 -46 2 -16 12
-91 22 -168 l18 -138 120 7 c66 4 127 8 136 10 9 2 61 6 116 9 54 4 122 9 149
11 28 3 82 7 120 10 108 8 195 15 255 20 30 3 82 8 114 10 33 3 62 8 65 10 5
6 2 259 -4 290 -2 11 -4 35 -4 54 -1 33 -2 33 -36 27 -19 -4 -35 -4 -35 -1 0
3 11 22 25 43 13 20 36 69 51 107 35 94 44 258 19 355 -35 135 -112 258 -215
344 -47 38 -185 110 -236 122 -61 14 -249 13 -304 -1z m-199 -84 c-12 -9 -38
-29 -57 -45 -33 -28 -35 -28 -49 -10 -17 23 -13 30 22 37 16 3 44 16 63 29 19
14 37 20 39 14 2 -5 -6 -17 -18 -25z"/>
</g>
</svg>
